P2
5 5
245
245 155 55 35 0 
245 155 55 35 0 
245 155 55 35 0 
245 155 55 35 0 
245 155 55 35 0 
